<?xml version="1.0" encoding="UTF-8" standalone="no"?><svg xmlns="http://www.w3.org/2000/svg" width="24" height="24" fill="none" viewBox="0 0 24 24"><path fill="#656565" d="M21.79 12.21C22.07 12.49 22.07 12.94 21.79 13.22S21.06 13.5 20.78 13.22L18.56 11C17.7 11.65 16.65 11.99 15.56 11.99 12.8 11.99 10.56 9.75 10.57 6.98 10.57 4.23 12.82 2 15.58 2S20.58 4.24 20.57 7.01C20.57 8.09 20.22 9.14 19.57 10L21.79 12.22zM15.57 10.58C17.54 10.58 19.14 8.98 19.14 7.01S17.54 3.44 15.57 3.44 12 5.04 12 7.01 13.6 10.58 15.57 10.58M7.48 14.45H20.58V15.88H7.48zM3 9.79C3 10.62 3.67 11.29 4.5 11.29S6 10.62 6 9.79 5.33 8.29 4.5 8.29 3 8.96 3 9.79M3 20.5C3 21.33 3.67 22 4.5 22S6 21.33 6 20.5 5.33 19 4.5 19 3 19.67 3 20.5M3 15.16C3 15.99 3.67 16.66 4.5 16.66S6 15.99 6 15.16 5.33 13.66 4.5 13.66 3 14.33 3 15.16M7.48 19.69H20.58V21.12H7.48zM10.06 9.08C10.25 9.59 10.5 10.07 10.81 10.51H7.48V9.08z"/></svg>